<?xml version="1.0" encoding="UTF-8"?>
<svg xmlns="http://www.w3.org/2000/svg" xmlns:xlink="http://www.w3.org/1999/xlink" width="20px" height="20px" viewBox="0 0 20 20" version="1.1">
<g id="surface1">
<path style=" stroke:none;fill-rule:nonzero;fill:rgb(98.823529%,98.823529%,97.647059%);fill-opacity:1;" d="M 13.570312 20.039062 C 9.046875 20.039062 4.539062 20.039062 0.0351562 20.039062 C 0.0351562 13.371094 0.0351562 6.703125 0.0351562 0.0390625 C 6.699219 0.0390625 13.367188 0.0390625 20.035156 0.0390625 C 20.035156 6.703125 20.035156 13.371094 20.035156 20.039062 C 17.882812 20.039062 15.734375 20.039062 13.570312 20.039062 M 8.148438 10.703125 C 8.15625 10.683594 8.164062 10.660156 8.183594 10.621094 C 8.207031 10.566406 8.234375 10.515625 8.257812 10.46875 C 8.492188 10.542969 8.707031 10.609375 8.921875 10.679688 C 8.796875 11.488281 8.667969 12.285156 8.347656 13.023438 C 8.199219 13.367188 8.027344 13.699219 7.867188 14.035156 C 7.789062 14.195312 7.832031 14.324219 7.949219 14.433594 C 8.0625 14.542969 8.179688 14.5 8.28125 14.40625 C 8.355469 14.339844 8.417969 14.257812 8.476562 14.175781 C 9.015625 13.40625 9.324219 12.519531 9.535156 11.585938 C 9.59375 11.328125 9.636719 11.066406 9.683594 10.808594 C 9.96875 10.808594 10.242188 10.816406 10.515625 10.804688 C 10.617188 10.804688 10.636719 10.847656 10.648438 10.945312 C 10.761719 11.921875 11.011719 12.851562 11.46875 13.695312 C 11.609375 13.957031 11.800781 14.191406 11.988281 14.421875 C 12.074219 14.527344 12.199219 14.527344 12.308594 14.4375 C 12.425781 14.34375 12.445312 14.210938 12.394531 14.070312 C 12.367188 14 12.335938 13.933594 12.300781 13.871094 C 11.773438 12.929688 11.496094 11.898438 11.390625 10.804688 C 11.382812 10.722656 11.394531 10.667969 11.484375 10.644531 C 11.667969 10.597656 11.847656 10.535156 12.015625 10.484375 C 12.1875 10.785156 12.355469 11.078125 12.527344 11.394531 C 12.535156 11.402344 12.546875 11.414062 12.558594 11.449219 C 12.65625 11.574219 12.753906 11.699219 12.863281 11.84375 C 12.875 11.855469 12.886719 11.863281 12.902344 11.886719 C 12.902344 11.886719 12.914062 11.894531 12.921875 11.917969 C 13.222656 12.171875 13.523438 12.433594 13.832031 12.675781 C 13.914062 12.738281 13.960938 12.792969 13.957031 12.90625 C 13.949219 13.136719 13.953125 13.367188 13.953125 13.601562 C 13.953125 13.757812 13.992188 13.867188 14.160156 13.867188 C 14.46875 13.867188 14.773438 13.882812 15.082031 13.886719 C 15.21875 13.886719 15.316406 13.828125 15.378906 13.667969 C 15.441406 13.503906 15.53125 13.347656 15.625 13.203125 C 15.707031 13.074219 15.730469 12.949219 15.648438 12.824219 C 15.449219 12.523438 15.242188 12.230469 15.035156 11.9375 C 15.015625 11.914062 14.941406 11.917969 14.910156 11.9375 C 14.78125 12.019531 14.65625 12.105469 14.539062 12.199219 C 14.445312 12.273438 14.363281 12.289062 14.269531 12.207031 C 13.972656 11.953125 13.675781 11.703125 13.371094 11.425781 C 13.359375 11.414062 13.347656 11.40625 13.335938 11.378906 C 13.328125 11.371094 13.324219 11.363281 13.304688 11.339844 C 13.273438 11.296875 13.238281 11.253906 13.199219 11.21875 C 13.199219 11.21875 13.203125 11.214844 13.199219 11.191406 C 13.183594 11.171875 13.167969 11.148438 13.148438 11.125 C 13.148438 11.125 13.152344 11.125 13.140625 11.101562 C 12.988281 10.816406 12.835938 10.53125 12.65625 10.195312 C 12.835938 10.195312 12.953125 10.199219 13.070312 10.195312 C 13.816406 10.179688 14.515625 9.988281 15.105469 9.445312 C 15.929688 8.679688 16.339844 7.695312 16.1875 6.5 C 16.011719 5.074219 15.058594 4.128906 13.765625 4.015625 C 13.632812 4.003906 13.578125 3.957031 13.539062 3.816406 C 13.351562 3.101562 13 2.496094 12.488281 2.023438 C 11.566406 1.164062 10.5 0.859375 9.320312 1.058594 C 8.546875 1.191406 7.871094 1.570312 7.304688 2.175781 C 6.757812 2.757812 6.414062 3.46875 6.253906 4.292969 C 6.140625 4.316406 6.03125 4.335938 5.921875 4.359375 C 4.539062 4.628906 3.605469 6.15625 3.953125 7.652344 C 4.238281 8.902344 4.9375 9.742188 6.105469 10.085938 C 6.160156 10.101562 6.210938 10.128906 6.265625 10.132812 C 6.703125 10.160156 7.140625 10.183594 7.582031 10.234375 C 7.5625 10.292969 7.550781 10.351562 7.523438 10.40625 C 7.371094 10.691406 7.214844 10.972656 7.042969 11.269531 C 6.746094 11.660156 6.390625 11.972656 5.988281 12.214844 C 5.933594 12.25 5.835938 12.25 5.78125 12.21875 C 5.585938 12.109375 5.402344 11.984375 5.21875 11.867188 C 5.078125 12.085938 4.945312 12.285156 4.820312 12.488281 C 4.734375 12.625 4.644531 12.765625 4.585938 12.917969 C 4.554688 12.988281 4.5625 13.101562 4.59375 13.175781 C 4.691406 13.390625 4.804688 13.601562 4.921875 13.804688 C 4.957031 13.863281 5.035156 13.921875 5.089844 13.921875 C 5.398438 13.917969 5.707031 13.898438 6.011719 13.886719 C 6.175781 13.878906 6.238281 13.777344 6.238281 13.605469 C 6.238281 13.417969 6.261719 13.226562 6.246094 13.042969 C 6.226562 12.804688 6.335938 12.710938 6.507812 12.613281 C 7.003906 12.324219 7.425781 11.929688 7.757812 11.386719 C 7.875 11.1875 7.992188 10.988281 8.117188 10.773438 C 8.125 10.753906 8.128906 10.738281 8.148438 10.703125 M 10.910156 17.183594 C 10.910156 17.183594 10.90625 17.183594 10.890625 17.195312 C 10.882812 17.214844 10.875 17.234375 10.871094 17.253906 C 10.871094 17.253906 10.867188 17.25 10.847656 17.261719 C 10.824219 17.347656 10.804688 17.433594 10.78125 17.542969 C 10.789062 17.5625 10.796875 17.582031 10.808594 17.625 C 10.886719 17.769531 10.960938 17.917969 11.039062 18.074219 C 11.039062 18.074219 11.046875 18.085938 11.050781 18.105469 C 11.066406 18.128906 11.082031 18.152344 11.109375 18.167969 C 11.109375 18.167969 11.097656 18.171875 11.101562 18.191406 C 11.113281 18.210938 11.128906 18.226562 11.144531 18.238281 C 11.144531 18.238281 11.140625 18.238281 11.140625 18.261719 C 11.152344 18.277344 11.167969 18.296875 11.179688 18.3125 C 11.179688 18.3125 11.175781 18.3125 11.179688 18.335938 C 11.203125 18.363281 11.222656 18.394531 11.246094 18.425781 C 11.246094 18.425781 11.246094 18.425781 11.25 18.445312 C 11.261719 18.457031 11.273438 18.46875 11.292969 18.484375 C 11.292969 18.484375 11.296875 18.488281 11.304688 18.507812 C 11.355469 18.570312 11.390625 18.675781 11.484375 18.574219 C 11.484375 18.574219 11.488281 18.585938 11.511719 18.582031 C 11.5625 18.546875 11.609375 18.511719 11.648438 18.460938 C 11.648438 18.460938 11.660156 18.476562 11.683594 18.472656 C 11.800781 18.398438 11.914062 18.324219 12.019531 18.238281 C 12.019531 18.238281 12.03125 18.25 12.050781 18.246094 C 12.148438 18.167969 12.242188 18.09375 12.351562 18.015625 C 12.359375 18.011719 12.363281 18.003906 12.382812 17.984375 C 12.386719 17.96875 12.394531 17.957031 12.394531 17.941406 C 12.394531 17.941406 12.398438 17.945312 12.421875 17.929688 C 12.433594 17.902344 12.449219 17.871094 12.449219 17.84375 C 12.453125 17.492188 12.453125 17.144531 12.449219 16.792969 C 12.449219 16.761719 12.414062 16.726562 12.390625 16.699219 C 12.390625 16.699219 12.394531 16.695312 12.378906 16.671875 C 12.304688 16.660156 12.230469 16.652344 12.128906 16.632812 C 12.058594 16.632812 11.988281 16.632812 11.890625 16.628906 C 11.699219 16.628906 11.507812 16.617188 11.320312 16.632812 C 11.261719 16.636719 11.207031 16.703125 11.136719 16.753906 C 11.128906 16.773438 11.125 16.792969 11.097656 16.828125 C 11.074219 16.878906 11.054688 16.933594 11.035156 16.996094 C 11.035156 16.996094 11.03125 16.984375 11.011719 16.996094 C 10.992188 17.035156 10.972656 17.074219 10.941406 17.121094 C 10.941406 17.121094 10.9375 17.132812 10.921875 17.144531 C 10.914062 17.15625 10.910156 17.171875 10.910156 17.183594 M 17.238281 13.382812 C 17.25 13.402344 17.261719 13.417969 17.273438 13.433594 C 17.273438 13.433594 17.269531 13.433594 17.273438 13.457031 C 17.296875 13.488281 17.316406 13.519531 17.339844 13.570312 C 17.339844 13.570312 17.351562 13.582031 17.351562 13.605469 C 17.378906 13.648438 17.410156 13.695312 17.441406 13.734375 C 17.441406 13.734375 17.4375 13.734375 17.4375 13.757812 C 17.449219 13.777344 17.460938 13.792969 17.476562 13.808594 C 17.476562 13.808594 17.472656 13.808594 17.480469 13.835938 C 17.542969 13.855469 17.601562 13.894531 17.664062 13.894531 C 17.9375 13.890625 18.210938 13.882812 18.484375 13.867188 C 18.707031 13.851562 18.75 13.796875 18.761719 13.542969 C 18.761719 13.496094 18.757812 13.445312 18.761719 13.363281 C 18.757812 13.25 18.757812 13.136719 18.765625 12.992188 C 18.773438 12.914062 18.785156 12.835938 18.785156 12.753906 C 18.777344 12.648438 18.828125 12.511719 18.6875 12.457031 C 18.6875 12.457031 18.6875 12.457031 18.675781 12.4375 C 18.613281 12.402344 18.550781 12.371094 18.488281 12.339844 C 18.488281 12.339844 18.492188 12.339844 18.480469 12.316406 C 18.449219 12.300781 18.414062 12.285156 18.378906 12.261719 C 18.378906 12.261719 18.367188 12.261719 18.355469 12.242188 C 18.335938 12.234375 18.316406 12.222656 18.28125 12.222656 C 18.28125 12.222656 18.292969 12.214844 18.28125 12.195312 C 18.25 12.179688 18.21875 12.160156 18.175781 12.128906 C 18.160156 12.121094 18.148438 12.117188 18.117188 12.089844 C 18.085938 12.070312 18.050781 12.054688 18.015625 12.042969 C 18.015625 12.042969 18.019531 12.039062 18.011719 12.019531 C 17.992188 12.011719 17.972656 12 17.949219 12.007812 C 17.949219 12.007812 17.957031 11.992188 17.945312 11.972656 C 17.707031 11.804688 17.695312 11.808594 17.585938 12.09375 C 17.566406 12.136719 17.550781 12.183594 17.519531 12.242188 C 17.503906 12.265625 17.492188 12.289062 17.457031 12.324219 C 17.429688 12.367188 17.402344 12.414062 17.375 12.457031 C 17.375 12.457031 17.375 12.457031 17.355469 12.464844 C 17.347656 12.484375 17.335938 12.5 17.328125 12.53125 C 17.328125 12.53125 17.324219 12.519531 17.304688 12.53125 C 17.257812 12.613281 17.207031 12.699219 17.167969 12.789062 C 17.167969 12.789062 17.15625 12.785156 17.140625 12.796875 C 17.125 12.847656 17.105469 12.898438 17.082031 12.972656 C 17.089844 13.027344 17.097656 13.078125 17.105469 13.152344 C 17.113281 13.160156 17.117188 13.171875 17.125 13.183594 C 17.125 13.183594 17.125 13.183594 17.128906 13.207031 C 17.152344 13.234375 17.175781 13.265625 17.199219 13.289062 C 17.199219 13.289062 17.195312 13.289062 17.199219 13.3125 C 17.210938 13.328125 17.222656 13.347656 17.238281 13.359375 C 17.238281 13.359375 17.234375 13.359375 17.238281 13.382812 M 7.972656 16.296875 C 8.289062 16.292969 8.605469 16.289062 8.945312 16.285156 C 8.976562 16.25 9.011719 16.222656 9.035156 16.179688 C 9.148438 15.976562 9.265625 15.769531 9.367188 15.558594 C 9.394531 15.496094 9.394531 15.398438 9.375 15.335938 C 9.234375 14.921875 8.9375 14.636719 8.683594 14.3125 C 8.386719 14.503906 8.105469 14.691406 7.820312 14.875 C 7.699219 14.953125 7.644531 15.058594 7.652344 15.214844 C 7.664062 15.472656 7.675781 15.734375 7.683594 15.996094 C 7.6875 16.25 7.722656 16.289062 7.972656 16.296875 M 13.953125 14.816406 C 13.949219 15 13.949219 15.179688 13.9375 15.359375 C 13.925781 15.488281 13.964844 15.570312 14.0625 15.636719 C 14.332031 15.804688 14.597656 15.980469 14.859375 16.15625 C 15 16.253906 15.09375 16.234375 15.1875 16.066406 C 15.34375 15.78125 15.523438 15.511719 15.691406 15.230469 C 15.710938 15.195312 15.710938 15.121094 15.691406 15.085938 C 15.59375 14.882812 15.476562 14.691406 15.382812 14.488281 C 15.285156 14.277344 15.164062 14.179688 14.933594 14.21875 C 14.6875 14.257812 14.429688 14.226562 14.179688 14.222656 C 14.042969 14.222656 13.96875 14.285156 13.972656 14.445312 C 13.976562 14.558594 13.960938 14.671875 13.953125 14.816406 M 2.875 15.683594 C 2.957031 15.550781 3.046875 15.417969 3.117188 15.277344 C 3.144531 15.222656 3.164062 15.128906 3.140625 15.078125 C 3.015625 14.820312 2.882812 14.570312 2.738281 14.324219 C 2.710938 14.273438 2.640625 14.226562 2.589844 14.226562 C 2.261719 14.21875 1.929688 14.226562 1.601562 14.226562 C 1.507812 14.226562 1.457031 14.273438 1.453125 14.386719 C 1.445312 14.714844 1.421875 15.046875 1.425781 15.375 C 1.425781 15.457031 1.472656 15.574219 1.535156 15.617188 C 1.8125 15.820312 2.105469 16.007812 2.394531 16.199219 C 2.480469 16.257812 2.554688 16.242188 2.613281 16.148438 C 2.699219 16.003906 2.78125 15.855469 2.875 15.683594 M 2.542969 12.003906 C 2.507812 11.964844 2.476562 11.925781 2.445312 11.886719 C 2.152344 12.070312 1.863281 12.242188 1.589844 12.429688 C 1.515625 12.480469 1.433594 12.59375 1.429688 12.683594 C 1.410156 13 1.417969 13.320312 1.421875 13.640625 C 1.421875 13.785156 1.480469 13.875 1.625 13.875 C 1.960938 13.878906 2.296875 13.890625 2.632812 13.878906 C 2.695312 13.875 2.773438 13.792969 2.8125 13.726562 C 2.914062 13.550781 2.992188 13.351562 3.101562 13.179688 C 3.167969 13.066406 3.195312 12.96875 3.121094 12.855469 C 2.933594 12.578125 2.746094 12.300781 2.542969 12.003906 M 9.1875 17.953125 C 9.246094 17.871094 9.316406 17.792969 9.363281 17.703125 C 9.394531 17.644531 9.421875 17.546875 9.398438 17.5 C 9.273438 17.238281 9.140625 16.988281 9 16.742188 C 8.96875 16.6875 8.894531 16.632812 8.839844 16.632812 C 8.523438 16.621094 8.203125 16.625 7.886719 16.632812 C 7.785156 16.632812 7.691406 16.671875 7.6875 16.808594 C 7.671875 17.140625 7.65625 17.46875 7.65625 17.800781 C 7.65625 17.878906 7.710938 17.984375 7.769531 18.027344 C 8.046875 18.21875 8.339844 18.394531 8.625 18.578125 C 8.722656 18.644531 8.789062 18.617188 8.847656 18.519531 C 8.953125 18.335938 9.066406 18.15625 9.1875 17.953125 M 3.160156 12.40625 C 3.199219 12.472656 3.246094 12.539062 3.273438 12.613281 C 3.351562 12.828125 3.511719 12.875 3.695312 12.878906 C 3.816406 12.878906 3.941406 12.867188 4.0625 12.878906 C 4.265625 12.898438 4.382812 12.796875 4.46875 12.59375 C 4.601562 12.265625 4.632812 11.871094 4.984375 11.664062 C 4.597656 11.414062 4.246094 11.183594 3.890625 10.964844 C 3.855469 10.941406 3.792969 10.960938 3.753906 10.984375 C 3.464844 11.171875 3.179688 11.367188 2.890625 11.5625 C 2.855469 11.585938 2.8125 11.605469 2.808594 11.609375 C 2.9375 11.902344 3.042969 12.140625 3.160156 12.40625 M 15.625 12.214844 C 15.78125 12.695312 16.050781 12.953125 16.546875 12.886719 C 16.839844 12.84375 16.886719 12.839844 17.011719 12.527344 C 17.132812 12.214844 17.175781 11.847656 17.503906 11.648438 C 17.125 11.402344 16.78125 11.171875 16.429688 10.953125 C 16.398438 10.929688 16.328125 10.941406 16.292969 10.964844 C 16.003906 11.15625 15.71875 11.355469 15.433594 11.554688 C 15.351562 11.609375 15.335938 11.671875 15.394531 11.769531 C 15.476562 11.902344 15.542969 12.046875 15.625 12.214844 M 6.082031 15.652344 C 6.191406 15.582031 6.257812 15.488281 6.253906 15.335938 C 6.242188 15.039062 6.242188 14.738281 6.238281 14.4375 C 6.234375 14.296875 6.171875 14.222656 6.039062 14.222656 C 5.730469 14.230469 5.421875 14.21875 5.113281 14.230469 C 5.050781 14.234375 4.972656 14.292969 4.933594 14.351562 C 4.800781 14.550781 4.679688 14.757812 4.5625 14.972656 C 4.535156 15.019531 4.515625 15.113281 4.539062 15.15625 C 4.710938 15.492188 4.894531 15.820312 5.085938 16.140625 C 5.109375 16.183594 5.222656 16.207031 5.265625 16.179688 C 5.535156 16.019531 5.796875 15.839844 6.082031 15.652344 M 9.1875 13.933594 C 9.136719 13.96875 9.085938 14.003906 9.027344 14.042969 C 9.109375 14.1875 9.1875 14.316406 9.253906 14.453125 C 9.34375 14.636719 9.417969 14.835938 9.507812 15.019531 C 9.566406 15.140625 9.636719 15.25 9.785156 15.253906 C 9.960938 15.253906 10.140625 15.265625 10.316406 15.285156 C 10.507812 15.308594 10.605469 15.207031 10.691406 15.023438 C 10.839844 14.707031 10.828125 14.292969 11.179688 14.097656 C 11.136719 14.054688 11.121094 14.027344 11.097656 14.015625 C 10.773438 13.804688 10.449219 13.597656 10.117188 13.398438 C 10.074219 13.371094 9.988281 13.394531 9.941406 13.425781 C 9.695312 13.585938 9.453125 13.757812 9.1875 13.933594 M 12.089844 14.722656 C 11.910156 14.601562 11.71875 14.492188 11.546875 14.359375 C 11.40625 14.25 11.339844 14.304688 11.277344 14.453125 C 11.222656 14.585938 11.152344 14.714844 11.085938 14.839844 C 10.996094 15.007812 10.898438 15.167969 10.820312 15.339844 C 10.792969 15.394531 10.792969 15.488281 10.820312 15.546875 C 10.929688 15.785156 11.046875 16.015625 11.175781 16.246094 C 11.199219 16.289062 11.277344 16.324219 11.328125 16.324219 C 11.636719 16.320312 11.945312 16.304688 12.25 16.289062 C 12.367188 16.28125 12.433594 16.222656 12.433594 16.078125 C 12.4375 15.878906 12.441406 15.675781 12.472656 15.480469 C 12.527344 15.121094 12.449219 14.859375 12.089844 14.722656 M 17.730469 14.222656 C 17.644531 14.25 17.511719 14.242188 17.472656 14.304688 C 17.339844 14.503906 17.230469 14.726562 17.132812 14.945312 C 17.097656 15.019531 17.085938 15.140625 17.117188 15.203125 C 17.277344 15.511719 17.449219 15.808594 17.628906 16.101562 C 17.65625 16.144531 17.769531 16.175781 17.808594 16.152344 C 18.097656 15.964844 18.382812 15.765625 18.660156 15.558594 C 18.710938 15.523438 18.757812 15.441406 18.757812 15.378906 C 18.765625 15.058594 18.761719 14.742188 18.757812 14.421875 C 18.757812 14.289062 18.699219 14.21875 18.570312 14.222656 C 18.300781 14.226562 18.03125 14.222656 17.730469 14.222656 M 16.421875 17.082031 C 16.761719 16.867188 17.117188 16.671875 17.359375 16.375 C 17.171875 16.011719 17 15.675781 16.828125 15.34375 C 16.804688 15.300781 16.757812 15.253906 16.714844 15.246094 C 16.539062 15.222656 16.359375 15.195312 16.183594 15.210938 C 16.070312 15.21875 15.921875 15.273438 15.867188 15.367188 C 15.6875 15.667969 15.546875 15.996094 15.390625 16.3125 C 15.347656 16.402344 15.363281 16.460938 15.4375 16.515625 C 15.683594 16.6875 15.925781 16.871094 16.175781 17.039062 C 16.234375 17.078125 16.320312 17.074219 16.421875 17.082031 M 10.78125 19.050781 C 10.886719 18.953125 10.992188 18.855469 11.085938 18.769531 C 10.925781 18.503906 10.734375 18.277344 10.644531 18.011719 C 10.53125 17.660156 10.308594 17.605469 10.035156 17.605469 C 9.929688 17.605469 9.820312 17.621094 9.71875 17.652344 C 9.664062 17.667969 9.601562 17.714844 9.574219 17.765625 C 9.410156 18.078125 9.253906 18.398438 9.09375 18.710938 C 9.046875 18.808594 9.066406 18.871094 9.148438 18.929688 C 9.40625 19.105469 9.65625 19.296875 9.917969 19.460938 C 9.984375 19.503906 10.109375 19.488281 10.183594 19.449219 C 10.382812 19.335938 10.570312 19.195312 10.78125 19.050781 M 4.691406 16.542969 C 4.753906 16.488281 4.816406 16.4375 4.84375 16.417969 C 4.644531 16.054688 4.460938 15.75 4.304688 15.429688 C 4.246094 15.308594 4.195312 15.242188 4.074219 15.238281 C 4.011719 15.234375 3.949219 15.203125 3.890625 15.210938 C 3.710938 15.242188 3.457031 15.21875 3.375 15.335938 C 3.160156 15.640625 3.019531 16.011719 2.859375 16.359375 C 2.84375 16.398438 2.871094 16.496094 2.90625 16.523438 C 3.164062 16.710938 3.425781 16.898438 3.695312 17.0625 C 3.757812 17.105469 3.878906 17.101562 3.945312 17.058594 C 4.191406 16.90625 4.429688 16.726562 4.691406 16.542969 M 15.605469 13.699219 C 15.515625 13.863281 15.496094 14.042969 15.550781 14.21875 C 15.730469 14.796875 15.917969 14.941406 16.460938 14.941406 C 16.816406 14.941406 17.214844 14.496094 17.214844 14.097656 C 17.21875 13.613281 16.820312 13.203125 16.386719 13.167969 C 16.003906 13.132812 15.75 13.269531 15.605469 13.699219 M 2.996094 14.132812 C 3.015625 14.195312 3.039062 14.261719 3.058594 14.324219 C 3.210938 14.769531 3.464844 14.996094 3.925781 14.953125 C 4.4375 14.90625 4.824219 14.28125 4.601562 13.761719 C 4.492188 13.511719 4.367188 13.246094 4.089844 13.191406 C 3.914062 13.15625 3.730469 13.175781 3.554688 13.1875 C 3.390625 13.199219 3.261719 13.277344 3.199219 13.46875 C 3.148438 13.621094 3.066406 13.761719 3.007812 13.910156 C 2.988281 13.96875 2.996094 14.039062 2.996094 14.132812 M 10.902344 16.617188 C 10.894531 16.523438 10.90625 16.425781 10.878906 16.34375 C 10.765625 16.023438 10.664062 15.664062 10.308594 15.601562 C 10.089844 15.5625 9.855469 15.613281 9.628906 15.632812 C 9.585938 15.636719 9.539062 15.6875 9.511719 15.734375 C 9.433594 15.875 9.351562 16.019531 9.292969 16.171875 C 9.164062 16.5 9.371094 17.113281 9.652344 17.28125 C 9.695312 17.308594 9.746094 17.328125 9.792969 17.339844 C 10.34375 17.445312 10.601562 17.300781 10.851562 16.746094 C 10.863281 16.714844 10.875 16.679688 10.902344 16.617188 Z M 10.902344 16.617188 "/>
<path style=" stroke:none;fill-rule:nonzero;fill:rgb(0.784314%,51.372552%,84.313726%);fill-opacity:1;" d="M 8.109375 10.789062 C 7.992188 10.988281 7.875 11.1875 7.738281 11.390625 C 7.660156 11.355469 7.601562 11.308594 7.535156 11.269531 C 7.503906 11.253906 7.449219 11.222656 7.4375 11.234375 C 7.410156 11.265625 7.398438 11.320312 7.390625 11.363281 C 7.382812 11.414062 7.382812 11.464844 7.382812 11.511719 C 7.21875 11.25 7.246094 11.195312 7.601562 11.011719 C 7.535156 10.949219 7.480469 10.898438 7.425781 10.847656 C 7.398438 10.894531 7.371094 10.941406 7.335938 10.980469 C 7.246094 11.074219 7.152344 11.164062 7.058594 11.257812 C 7.214844 10.972656 7.371094 10.691406 7.523438 10.40625 C 7.550781 10.351562 7.5625 10.292969 7.589844 10.214844 C 7.636719 10.046875 7.511719 9.933594 7.347656 9.964844 C 7.253906 9.980469 7.164062 10.015625 7.070312 10.019531 C 6.742188 10.039062 6.414062 10.050781 6.085938 10.066406 C 4.9375 9.742188 4.238281 8.902344 3.953125 7.652344 C 3.605469 6.15625 4.539062 4.628906 5.921875 4.359375 C 6.03125 4.335938 6.140625 4.316406 6.253906 4.292969 C 6.414062 3.46875 6.757812 2.757812 7.304688 2.175781 C 7.871094 1.570312 8.546875 1.191406 9.320312 1.058594 C 10.5 0.859375 11.566406 1.164062 12.488281 2.023438 C 13 2.496094 13.351562 3.101562 13.539062 3.816406 C 13.578125 3.957031 13.632812 4.003906 13.765625 4.015625 C 15.058594 4.128906 16.011719 5.074219 16.1875 6.5 C 16.339844 7.695312 15.929688 8.679688 15.105469 9.445312 C 14.515625 9.988281 13.816406 10.179688 13.070312 10.195312 C 12.953125 10.199219 12.835938 10.195312 12.65625 10.195312 C 12.835938 10.53125 12.988281 10.816406 13.132812 11.117188 C 13.070312 11.183594 13.015625 11.230469 12.960938 11.277344 C 12.980469 11.277344 13 11.277344 13.023438 11.277344 C 13.0625 11.34375 13.097656 11.414062 13.152344 11.511719 C 12.902344 11.546875 12.929688 11.734375 12.914062 11.894531 C 12.914062 11.894531 12.902344 11.886719 12.894531 11.867188 C 12.878906 11.839844 12.863281 11.832031 12.851562 11.824219 C 12.753906 11.699219 12.65625 11.574219 12.554688 11.425781 C 12.542969 11.390625 12.53125 11.382812 12.523438 11.371094 C 12.355469 11.078125 12.1875 10.785156 12.015625 10.484375 C 11.847656 10.535156 11.667969 10.597656 11.484375 10.644531 C 11.394531 10.667969 11.382812 10.722656 11.390625 10.804688 C 11.496094 11.898438 11.773438 12.929688 12.300781 13.871094 C 12.335938 13.933594 12.367188 14 12.394531 14.070312 C 12.445312 14.210938 12.425781 14.34375 12.308594 14.4375 C 12.199219 14.527344 12.074219 14.527344 11.988281 14.421875 C 11.800781 14.191406 11.609375 13.957031 11.46875 13.695312 C 11.011719 12.851562 10.761719 11.921875 10.648438 10.945312 C 10.636719 10.847656 10.617188 10.804688 10.515625 10.804688 C 10.242188 10.816406 9.96875 10.808594 9.683594 10.808594 C 9.636719 11.066406 9.59375 11.328125 9.535156 11.585938 C 9.324219 12.519531 9.015625 13.40625 8.476562 14.175781 C 8.417969 14.257812 8.355469 14.339844 8.28125 14.40625 C 8.179688 14.5 8.0625 14.542969 7.949219 14.433594 C 7.832031 14.324219 7.789062 14.195312 7.867188 14.035156 C 8.027344 13.699219 8.199219 13.367188 8.347656 13.023438 C 8.667969 12.285156 8.796875 11.488281 8.921875 10.679688 C 8.707031 10.609375 8.492188 10.542969 8.257812 10.46875 C 8.234375 10.515625 8.207031 10.566406 8.171875 10.625 C 8.160156 10.628906 8.148438 10.617188 8.144531 10.605469 C 8.074219 10.640625 8.007812 10.691406 7.9375 10.738281 C 7.945312 10.757812 7.953125 10.777344 7.960938 10.796875 C 8 10.789062 8.039062 10.777344 8.085938 10.773438 C 8.09375 10.78125 8.109375 10.789062 8.109375 10.789062 M 9.59375 9.046875 C 9.59375 9.046875 9.589844 9.050781 9.589844 9.023438 C 9.558594 9.003906 9.523438 8.984375 9.46875 8.957031 C 9.410156 8.898438 9.359375 8.832031 9.296875 8.78125 C 9.265625 8.753906 9.207031 8.734375 9.179688 8.75 C 9.148438 8.765625 9.117188 8.832031 9.121094 8.867188 C 9.136719 8.972656 9.148438 9.082031 9.191406 9.171875 C 9.621094 10.066406 10.792969 10.1875 11.359375 9.394531 C 11.457031 9.257812 11.519531 9.082031 11.578125 8.917969 C 11.597656 8.871094 11.566406 8.773438 11.527344 8.742188 C 11.5 8.71875 11.417969 8.757812 11.371094 8.789062 C 11.316406 8.828125 11.269531 8.886719 11.191406 8.933594 C 11.15625 8.972656 11.117188 9.011719 11.078125 9.046875 C 11.078125 9.046875 11.082031 9.046875 11.054688 9.042969 C 11.035156 9.046875 11.007812 9.046875 10.992188 9.058594 C 10.613281 9.285156 10.226562 9.320312 9.824219 9.136719 C 9.808594 9.132812 9.78125 9.15625 9.742188 9.160156 C 9.726562 9.148438 9.710938 9.136719 9.691406 9.097656 C 9.660156 9.082031 9.625 9.0625 9.59375 9.046875 M 12.59375 11.304688 C 12.570312 11.265625 12.550781 11.230469 12.53125 11.191406 C 12.519531 11.203125 12.503906 11.21875 12.492188 11.230469 C 12.527344 11.265625 12.558594 11.296875 12.59375 11.359375 C 12.644531 11.4375 12.695312 11.515625 12.757812 11.613281 C 12.824219 11.34375 12.816406 11.335938 12.59375 11.304688 M 12.199219 8.296875 C 12.3125 8.269531 12.429688 8.25 12.542969 8.210938 C 13.21875 7.972656 13.855469 6.652344 13.347656 5.652344 C 12.878906 4.730469 11.808594 4.582031 11.164062 5.363281 C 10.792969 5.808594 10.691406 6.335938 10.78125 6.921875 C 10.894531 7.644531 11.414062 8.328125 12.199219 8.296875 M 6.984375 7.316406 C 7.003906 7.363281 7.019531 7.40625 7.042969 7.453125 C 7.46875 8.398438 8.539062 8.59375 9.136719 7.816406 C 9.445312 7.417969 9.628906 6.945312 9.605469 6.394531 C 9.582031 5.703125 9.167969 5.089844 8.582031 4.910156 C 8.007812 4.738281 7.414062 5.015625 7.082031 5.617188 C 6.789062 6.152344 6.789062 6.714844 6.984375 7.316406 Z M 6.984375 7.316406 "/>
<path style=" stroke:none;fill-rule:nonzero;fill:rgb(1.568628%,52.156866%,85.09804%);fill-opacity:1;" d="M 7.050781 11.261719 C 7.152344 11.164062 7.246094 11.074219 7.335938 10.980469 C 7.371094 10.941406 7.398438 10.894531 7.425781 10.847656 C 7.480469 10.898438 7.535156 10.949219 7.601562 11.011719 C 7.246094 11.195312 7.21875 11.25 7.382812 11.511719 C 7.382812 11.464844 7.382812 11.414062 7.390625 11.363281 C 7.398438 11.320312 7.410156 11.265625 7.4375 11.234375 C 7.449219 11.222656 7.503906 11.253906 7.535156 11.269531 C 7.601562 11.308594 7.660156 11.355469 7.730469 11.402344 C 7.425781 11.929688 7.003906 12.324219 6.507812 12.613281 C 6.335938 12.710938 6.226562 12.804688 6.246094 13.042969 C 6.261719 13.226562 6.238281 13.417969 6.238281 13.605469 C 6.238281 13.777344 6.175781 13.878906 6.011719 13.886719 C 5.707031 13.898438 5.398438 13.917969 5.089844 13.921875 C 5.035156 13.921875 4.957031 13.863281 4.921875 13.804688 C 4.804688 13.601562 4.691406 13.390625 4.59375 13.175781 C 4.5625 13.101562 4.554688 12.988281 4.585938 12.917969 C 4.644531 12.765625 4.734375 12.625 4.820312 12.488281 C 4.945312 12.285156 5.078125 12.085938 5.21875 11.867188 C 5.402344 11.984375 5.585938 12.109375 5.78125 12.21875 C 5.835938 12.25 5.933594 12.25 5.988281 12.214844 C 6.390625 11.972656 6.746094 11.660156 7.050781 11.261719 Z M 7.050781 11.261719 "/>
<path style=" stroke:none;fill-rule:nonzero;fill:rgb(1.568628%,52.156866%,85.09804%);fill-opacity:1;" d="M 12.917969 11.90625 C 12.929688 11.734375 12.902344 11.546875 13.152344 11.511719 C 13.097656 11.414062 13.0625 11.34375 13.023438 11.277344 C 13 11.277344 12.980469 11.277344 12.960938 11.277344 C 13.015625 11.230469 13.070312 11.183594 13.136719 11.128906 C 13.152344 11.125 13.148438 11.125 13.144531 11.140625 C 13.160156 11.175781 13.183594 11.195312 13.203125 11.214844 C 13.203125 11.214844 13.199219 11.21875 13.199219 11.230469 C 13.238281 11.285156 13.273438 11.324219 13.3125 11.363281 C 13.324219 11.363281 13.328125 11.371094 13.339844 11.398438 C 13.355469 11.429688 13.367188 11.4375 13.378906 11.449219 C 13.675781 11.703125 13.972656 11.953125 14.269531 12.207031 C 14.363281 12.289062 14.445312 12.273438 14.539062 12.199219 C 14.65625 12.105469 14.78125 12.019531 14.910156 11.9375 C 14.941406 11.917969 15.015625 11.914062 15.035156 11.9375 C 15.242188 12.230469 15.449219 12.523438 15.648438 12.824219 C 15.730469 12.949219 15.707031 13.074219 15.625 13.203125 C 15.53125 13.347656 15.441406 13.503906 15.378906 13.667969 C 15.316406 13.828125 15.21875 13.886719 15.082031 13.886719 C 14.773438 13.882812 14.46875 13.867188 14.160156 13.867188 C 13.992188 13.867188 13.953125 13.757812 13.953125 13.601562 C 13.953125 13.367188 13.949219 13.136719 13.957031 12.90625 C 13.960938 12.792969 13.914062 12.738281 13.832031 12.675781 C 13.523438 12.433594 13.222656 12.171875 12.917969 11.90625 Z M 12.917969 11.90625 "/>
<path style=" stroke:none;fill-rule:nonzero;fill:rgb(1.568628%,52.549022%,85.09804%);fill-opacity:1;" d="M 13.957031 14.800781 C 13.960938 14.671875 13.976562 14.558594 13.972656 14.445312 C 13.96875 14.285156 14.042969 14.222656 14.179688 14.222656 C 14.429688 14.226562 14.6875 14.257812 14.933594 14.21875 C 15.164062 14.179688 15.285156 14.277344 15.382812 14.488281 C 15.476562 14.691406 15.59375 14.882812 15.691406 15.085938 C 15.710938 15.121094 15.710938 15.195312 15.691406 15.230469 C 15.523438 15.511719 15.34375 15.78125 15.1875 16.066406 C 15.09375 16.234375 15 16.253906 14.859375 16.15625 C 14.597656 15.980469 14.332031 15.804688 14.0625 15.636719 C 13.964844 15.570312 13.925781 15.488281 13.9375 15.359375 C 13.949219 15.179688 13.949219 15 13.957031 14.800781 Z M 13.957031 14.800781 "/>
<path style=" stroke:none;fill-rule:nonzero;fill:rgb(1.960784%,52.549022%,85.09804%);fill-opacity:1;" d="M 2.871094 15.695312 C 2.78125 15.855469 2.699219 16.003906 2.613281 16.148438 C 2.554688 16.242188 2.480469 16.257812 2.394531 16.199219 C 2.105469 16.007812 1.8125 15.820312 1.535156 15.617188 C 1.472656 15.574219 1.425781 15.457031 1.425781 15.375 C 1.421875 15.046875 1.445312 14.714844 1.453125 14.386719 C 1.457031 14.273438 1.507812 14.226562 1.601562 14.226562 C 1.929688 14.226562 2.261719 14.21875 2.589844 14.226562 C 2.640625 14.226562 2.710938 14.273438 2.738281 14.324219 C 2.882812 14.570312 3.015625 14.820312 3.140625 15.078125 C 3.164062 15.128906 3.144531 15.222656 3.117188 15.277344 C 3.046875 15.417969 2.957031 15.550781 2.871094 15.695312 Z M 2.871094 15.695312 "/>
<path style=" stroke:none;fill-rule:nonzero;fill:rgb(1.568628%,52.549022%,85.09804%);fill-opacity:1;" d="M 2.550781 12.015625 C 2.746094 12.300781 2.933594 12.578125 3.121094 12.855469 C 3.195312 12.96875 3.167969 13.066406 3.101562 13.179688 C 2.992188 13.351562 2.914062 13.550781 2.8125 13.726562 C 2.773438 13.792969 2.695312 13.875 2.632812 13.878906 C 2.296875 13.890625 1.960938 13.878906 1.625 13.875 C 1.480469 13.875 1.421875 13.785156 1.421875 13.640625 C 1.417969 13.320312 1.410156 13 1.429688 12.683594 C 1.433594 12.59375 1.515625 12.480469 1.589844 12.429688 C 1.863281 12.242188 2.152344 12.070312 2.445312 11.886719 C 2.476562 11.925781 2.507812 11.964844 2.550781 12.015625 Z M 2.550781 12.015625 "/>
<path style=" stroke:none;fill-rule:nonzero;fill:rgb(1.960784%,52.941179%,85.882354%);fill-opacity:1;" d="M 9.179688 17.964844 C 9.066406 18.15625 8.953125 18.335938 8.847656 18.519531 C 8.789062 18.617188 8.722656 18.644531 8.625 18.578125 C 8.339844 18.394531 8.046875 18.21875 7.769531 18.027344 C 7.710938 17.984375 7.65625 17.878906 7.65625 17.800781 C 7.65625 17.46875 7.671875 17.140625 7.6875 16.808594 C 7.691406 16.671875 7.785156 16.632812 7.886719 16.632812 C 8.203125 16.625 8.523438 16.621094 8.839844 16.632812 C 8.894531 16.632812 8.96875 16.6875 9 16.742188 C 9.140625 16.988281 9.273438 17.238281 9.398438 17.5 C 9.421875 17.546875 9.394531 17.644531 9.363281 17.703125 C 9.316406 17.792969 9.246094 17.871094 9.179688 17.964844 Z M 9.179688 17.964844 "/>
<path style=" stroke:none;fill-rule:nonzero;fill:rgb(1.568628%,52.549022%,85.09804%);fill-opacity:1;" d="M 3.15625 12.394531 C 3.042969 12.140625 2.9375 11.902344 2.808594 11.609375 C 2.8125 11.605469 2.855469 11.585938 2.890625 11.5625 C 3.179688 11.367188 3.464844 11.171875 3.753906 10.984375 C 3.792969 10.960938 3.855469 10.941406 3.890625 10.964844 C 4.246094 11.183594 4.597656 11.414062 4.984375 11.664062 C 4.632812 11.871094 4.601562 12.265625 4.46875 12.59375 C 4.382812 12.796875 4.265625 12.898438 4.0625 12.878906 C 3.941406 12.867188 3.816406 12.878906 3.695312 12.878906 C 3.511719 12.875 3.351562 12.828125 3.273438 12.613281 C 3.246094 12.539062 3.199219 12.472656 3.15625 12.394531 Z M 3.15625 12.394531 "/>
<path style=" stroke:none;fill-rule:nonzero;fill:rgb(1.568628%,52.549022%,85.09804%);fill-opacity:1;" d="M 15.621094 12.199219 C 15.542969 12.046875 15.476562 11.902344 15.394531 11.769531 C 15.335938 11.671875 15.351562 11.609375 15.433594 11.554688 C 15.71875 11.355469 16.003906 11.15625 16.292969 10.964844 C 16.328125 10.941406 16.398438 10.929688 16.429688 10.953125 C 16.78125 11.171875 17.125 11.402344 17.503906 11.648438 C 17.175781 11.847656 17.132812 12.214844 17.011719 12.527344 C 16.886719 12.839844 16.839844 12.84375 16.546875 12.886719 C 16.050781 12.953125 15.78125 12.695312 15.621094 12.199219 Z M 15.621094 12.199219 "/>
<path style=" stroke:none;fill-rule:nonzero;fill:rgb(1.960784%,52.549022%,85.490197%);fill-opacity:1;" d="M 6.074219 15.660156 C 5.796875 15.839844 5.535156 16.019531 5.265625 16.179688 C 5.222656 16.207031 5.109375 16.183594 5.085938 16.140625 C 4.894531 15.820312 4.710938 15.492188 4.539062 15.15625 C 4.515625 15.113281 4.535156 15.019531 4.5625 14.972656 C 4.679688 14.757812 4.800781 14.550781 4.933594 14.351562 C 4.972656 14.292969 5.050781 14.234375 5.113281 14.230469 C 5.421875 14.21875 5.730469 14.230469 6.039062 14.222656 C 6.171875 14.222656 6.234375 14.296875 6.238281 14.4375 C 6.242188 14.738281 6.242188 15.039062 6.253906 15.335938 C 6.257812 15.488281 6.191406 15.582031 6.074219 15.660156 Z M 6.074219 15.660156 "/>
<path style=" stroke:none;fill-rule:nonzero;fill:rgb(1.568628%,52.549022%,85.490197%);fill-opacity:1;" d="M 9.199219 13.929688 C 9.453125 13.757812 9.695312 13.585938 9.941406 13.425781 C 9.988281 13.394531 10.074219 13.371094 10.117188 13.398438 C 10.449219 13.597656 10.773438 13.804688 11.097656 14.015625 C 11.121094 14.027344 11.136719 14.054688 11.179688 14.097656 C 10.828125 14.292969 10.839844 14.707031 10.691406 15.023438 C 10.605469 15.207031 10.507812 15.308594 10.316406 15.285156 C 10.140625 15.265625 9.960938 15.253906 9.785156 15.253906 C 9.636719 15.25 9.566406 15.140625 9.507812 15.019531 C 9.417969 14.835938 9.34375 14.636719 9.253906 14.453125 C 9.1875 14.316406 9.109375 14.1875 9.027344 14.042969 C 9.085938 14.003906 9.136719 13.96875 9.199219 13.929688 Z M 9.199219 13.929688 "/>
<path style=" stroke:none;fill-rule:nonzero;fill:rgb(1.568628%,52.549022%,85.490197%);fill-opacity:1;" d="M 7.945312 16.285156 C 7.722656 16.289062 7.6875 16.25 7.683594 15.996094 C 7.675781 15.734375 7.664062 15.472656 7.652344 15.214844 C 7.644531 15.058594 7.699219 14.953125 7.820312 14.875 C 8.105469 14.691406 8.386719 14.503906 8.683594 14.3125 C 8.9375 14.636719 9.234375 14.921875 9.375 15.335938 C 9.394531 15.398438 9.394531 15.496094 9.367188 15.558594 C 9.265625 15.769531 9.148438 15.976562 9.035156 16.179688 C 9.011719 16.222656 8.976562 16.25 8.925781 16.273438 C 8.695312 16.257812 8.492188 16.25 8.285156 16.25 C 8.171875 16.253906 8.058594 16.273438 7.945312 16.285156 Z M 7.945312 16.285156 "/>
<path style=" stroke:none;fill-rule:nonzero;fill:rgb(1.568628%,52.549022%,85.09804%);fill-opacity:1;" d="M 12.101562 14.730469 C 12.449219 14.859375 12.527344 15.121094 12.472656 15.480469 C 12.441406 15.675781 12.4375 15.878906 12.433594 16.078125 C 12.433594 16.222656 12.367188 16.28125 12.25 16.289062 C 11.945312 16.304688 11.636719 16.320312 11.328125 16.324219 C 11.277344 16.324219 11.199219 16.289062 11.175781 16.246094 C 11.046875 16.015625 10.929688 15.785156 10.820312 15.546875 C 10.792969 15.488281 10.792969 15.394531 10.820312 15.339844 C 10.898438 15.167969 10.996094 15.007812 11.085938 14.839844 C 11.152344 14.714844 11.222656 14.585938 11.277344 14.453125 C 11.339844 14.304688 11.40625 14.25 11.546875 14.359375 C 11.71875 14.492188 11.910156 14.601562 12.101562 14.730469 Z M 12.101562 14.730469 "/>
<path style=" stroke:none;fill-rule:nonzero;fill:rgb(1.568628%,52.156866%,85.09804%);fill-opacity:1;" d="M 17.75 14.226562 C 18.03125 14.222656 18.300781 14.226562 18.570312 14.222656 C 18.699219 14.21875 18.757812 14.289062 18.757812 14.421875 C 18.761719 14.742188 18.765625 15.058594 18.757812 15.378906 C 18.757812 15.441406 18.710938 15.523438 18.660156 15.558594 C 18.382812 15.765625 18.097656 15.964844 17.808594 16.152344 C 17.769531 16.175781 17.65625 16.144531 17.628906 16.101562 C 17.449219 15.808594 17.277344 15.511719 17.117188 15.203125 C 17.085938 15.140625 17.097656 15.019531 17.132812 14.945312 C 17.230469 14.726562 17.339844 14.503906 17.472656 14.304688 C 17.511719 14.242188 17.644531 14.25 17.75 14.226562 Z M 17.75 14.226562 "/>
<path style=" stroke:none;fill-rule:nonzero;fill:rgb(1.960784%,52.549022%,85.490197%);fill-opacity:1;" d="M 16.410156 17.089844 C 16.320312 17.074219 16.234375 17.078125 16.175781 17.039062 C 15.925781 16.871094 15.683594 16.6875 15.4375 16.515625 C 15.363281 16.460938 15.347656 16.402344 15.390625 16.3125 C 15.546875 15.996094 15.6875 15.667969 15.867188 15.367188 C 15.921875 15.273438 16.070312 15.21875 16.183594 15.210938 C 16.359375 15.195312 16.539062 15.222656 16.714844 15.246094 C 16.757812 15.253906 16.804688 15.300781 16.828125 15.34375 C 17 15.675781 17.171875 16.011719 17.359375 16.375 C 17.117188 16.671875 16.761719 16.867188 16.410156 17.089844 Z M 16.410156 17.089844 "/>
<path style=" stroke:none;fill-rule:nonzero;fill:rgb(1.568628%,52.549022%,85.490197%);fill-opacity:1;" d="M 10.769531 19.058594 C 10.570312 19.195312 10.382812 19.335938 10.183594 19.449219 C 10.109375 19.488281 9.984375 19.503906 9.917969 19.460938 C 9.65625 19.296875 9.40625 19.105469 9.148438 18.929688 C 9.066406 18.871094 9.046875 18.808594 9.09375 18.710938 C 9.253906 18.398438 9.410156 18.078125 9.574219 17.765625 C 9.601562 17.714844 9.664062 17.667969 9.71875 17.652344 C 9.820312 17.621094 9.929688 17.605469 10.035156 17.605469 C 10.308594 17.605469 10.53125 17.660156 10.644531 18.011719 C 10.734375 18.277344 10.925781 18.503906 11.085938 18.769531 C 10.992188 18.855469 10.886719 18.953125 10.769531 19.058594 Z M 10.769531 19.058594 "/>
<path style=" stroke:none;fill-rule:nonzero;fill:rgb(1.960784%,52.549022%,85.490197%);fill-opacity:1;" d="M 4.679688 16.550781 C 4.429688 16.726562 4.191406 16.90625 3.945312 17.058594 C 3.878906 17.101562 3.757812 17.105469 3.695312 17.0625 C 3.425781 16.898438 3.164062 16.710938 2.90625 16.523438 C 2.871094 16.496094 2.84375 16.398438 2.859375 16.359375 C 3.019531 16.011719 3.160156 15.640625 3.375 15.335938 C 3.457031 15.21875 3.710938 15.242188 3.890625 15.210938 C 3.949219 15.203125 4.011719 15.234375 4.074219 15.238281 C 4.195312 15.242188 4.246094 15.308594 4.304688 15.429688 C 4.460938 15.75 4.644531 16.054688 4.84375 16.417969 C 4.816406 16.4375 4.753906 16.488281 4.679688 16.550781 Z M 4.679688 16.550781 "/>
<path style=" stroke:none;fill-rule:nonzero;fill:rgb(1.568628%,52.156866%,85.09804%);fill-opacity:1;" d="M 15.613281 13.6875 C 15.75 13.269531 16.003906 13.132812 16.386719 13.167969 C 16.820312 13.203125 17.21875 13.613281 17.214844 14.097656 C 17.214844 14.496094 16.816406 14.941406 16.460938 14.941406 C 15.917969 14.941406 15.730469 14.796875 15.550781 14.21875 C 15.496094 14.042969 15.515625 13.863281 15.613281 13.6875 Z M 15.613281 13.6875 "/>
<path style=" stroke:none;fill-rule:nonzero;fill:rgb(1.568628%,52.156866%,85.09804%);fill-opacity:1;" d="M 2.992188 14.117188 C 2.996094 14.039062 2.988281 13.96875 3.007812 13.910156 C 3.066406 13.761719 3.148438 13.621094 3.199219 13.46875 C 3.261719 13.277344 3.390625 13.199219 3.554688 13.1875 C 3.730469 13.175781 3.914062 13.15625 4.089844 13.191406 C 4.367188 13.246094 4.492188 13.511719 4.601562 13.761719 C 4.824219 14.28125 4.4375 14.90625 3.925781 14.953125 C 3.464844 14.996094 3.210938 14.769531 3.058594 14.324219 C 3.039062 14.261719 3.015625 14.195312 2.992188 14.117188 Z M 2.992188 14.117188 "/>
<path style=" stroke:none;fill-rule:nonzero;fill:rgb(1.568628%,52.549022%,85.490197%);fill-opacity:1;" d="M 10.894531 16.628906 C 10.875 16.679688 10.863281 16.714844 10.851562 16.746094 C 10.601562 17.300781 10.34375 17.445312 9.792969 17.339844 C 9.746094 17.328125 9.695312 17.308594 9.652344 17.28125 C 9.371094 17.113281 9.164062 16.5 9.292969 16.171875 C 9.351562 16.019531 9.433594 15.875 9.511719 15.734375 C 9.539062 15.6875 9.585938 15.636719 9.628906 15.632812 C 9.855469 15.613281 10.089844 15.5625 10.308594 15.601562 C 10.664062 15.664062 10.765625 16.023438 10.878906 16.34375 C 10.90625 16.425781 10.894531 16.523438 10.894531 16.628906 Z M 10.894531 16.628906 "/>
<path style=" stroke:none;fill-rule:nonzero;fill:rgb(1.568628%,52.549022%,85.09804%);fill-opacity:1;" d="M 18.757812 13.023438 C 18.757812 13.136719 18.757812 13.25 18.746094 13.382812 C 18.714844 13.453125 18.691406 13.5 18.691406 13.550781 C 18.675781 13.773438 18.644531 13.808594 18.449219 13.808594 C 18.28125 13.8125 18.117188 13.8125 17.949219 13.8125 C 17.789062 13.808594 17.632812 13.808594 17.472656 13.808594 C 17.472656 13.808594 17.476562 13.808594 17.472656 13.796875 C 17.460938 13.769531 17.449219 13.753906 17.4375 13.734375 C 17.4375 13.734375 17.441406 13.734375 17.441406 13.722656 C 17.410156 13.667969 17.378906 13.625 17.351562 13.582031 C 17.351562 13.582031 17.339844 13.570312 17.339844 13.546875 C 17.316406 13.496094 17.292969 13.464844 17.269531 13.433594 C 17.269531 13.433594 17.273438 13.433594 17.273438 13.421875 C 17.257812 13.394531 17.246094 13.378906 17.234375 13.359375 C 17.234375 13.359375 17.238281 13.359375 17.238281 13.347656 C 17.222656 13.324219 17.207031 13.304688 17.195312 13.289062 C 17.195312 13.289062 17.199219 13.289062 17.199219 13.277344 C 17.175781 13.238281 17.148438 13.210938 17.125 13.183594 C 17.125 13.183594 17.125 13.183594 17.128906 13.171875 C 17.121094 13.152344 17.113281 13.140625 17.105469 13.132812 C 17.097656 13.078125 17.089844 13.027344 17.09375 12.957031 C 17.125 12.886719 17.140625 12.835938 17.15625 12.785156 C 17.15625 12.785156 17.167969 12.789062 17.175781 12.785156 C 17.230469 12.691406 17.277344 12.605469 17.324219 12.519531 C 17.324219 12.519531 17.328125 12.53125 17.335938 12.523438 C 17.355469 12.496094 17.363281 12.476562 17.375 12.457031 C 17.375 12.457031 17.375 12.457031 17.386719 12.457031 C 17.421875 12.410156 17.449219 12.363281 17.476562 12.316406 C 17.492188 12.289062 17.503906 12.265625 17.539062 12.230469 C 17.574219 12.191406 17.601562 12.164062 17.609375 12.132812 C 17.660156 11.96875 17.734375 11.878906 17.890625 11.988281 C 17.90625 12 17.933594 11.992188 17.957031 11.992188 C 17.957031 11.992188 17.949219 12.007812 17.953125 12.011719 C 17.980469 12.023438 18 12.03125 18.019531 12.039062 C 18.019531 12.039062 18.015625 12.042969 18.019531 12.050781 C 18.0625 12.078125 18.097656 12.09375 18.132812 12.109375 C 18.148438 12.117188 18.160156 12.121094 18.183594 12.148438 C 18.226562 12.183594 18.261719 12.199219 18.292969 12.214844 C 18.292969 12.214844 18.28125 12.222656 18.289062 12.230469 C 18.320312 12.25 18.34375 12.253906 18.367188 12.261719 C 18.367188 12.261719 18.378906 12.261719 18.382812 12.277344 C 18.421875 12.308594 18.457031 12.324219 18.492188 12.339844 C 18.492188 12.339844 18.488281 12.339844 18.492188 12.351562 C 18.5625 12.394531 18.625 12.425781 18.6875 12.457031 C 18.6875 12.457031 18.6875 12.457031 18.6875 12.472656 C 18.703125 12.566406 18.710938 12.644531 18.722656 12.722656 C 18.734375 12.820312 18.746094 12.921875 18.757812 13.023438 Z M 18.757812 13.023438 "/>
<path style=" stroke:none;fill-rule:nonzero;fill:rgb(1.568628%,52.941179%,85.490197%);fill-opacity:1;" d="M 11.921875 16.632812 C 11.988281 16.632812 12.058594 16.632812 12.148438 16.648438 C 12.246094 16.671875 12.320312 16.683594 12.394531 16.695312 C 12.394531 16.695312 12.390625 16.699219 12.390625 16.714844 C 12.394531 17.136719 12.398438 17.539062 12.398438 17.945312 C 12.398438 17.945312 12.394531 17.941406 12.386719 17.945312 C 12.375 17.964844 12.371094 17.980469 12.363281 17.992188 C 12.363281 18.003906 12.359375 18.011719 12.332031 18.015625 C 12.21875 18.09375 12.125 18.171875 12.03125 18.25 C 12.03125 18.25 12.019531 18.238281 12.011719 18.242188 C 11.890625 18.320312 11.773438 18.398438 11.660156 18.476562 C 11.660156 18.476562 11.648438 18.460938 11.640625 18.464844 C 11.585938 18.507812 11.539062 18.546875 11.488281 18.585938 C 11.488281 18.585938 11.484375 18.574219 11.476562 18.574219 C 11.410156 18.546875 11.351562 18.519531 11.296875 18.488281 C 11.296875 18.488281 11.292969 18.484375 11.292969 18.472656 C 11.277344 18.445312 11.261719 18.433594 11.246094 18.425781 C 11.246094 18.425781 11.246094 18.425781 11.246094 18.410156 C 11.222656 18.367188 11.199219 18.339844 11.175781 18.3125 C 11.175781 18.3125 11.179688 18.3125 11.179688 18.300781 C 11.164062 18.273438 11.152344 18.253906 11.140625 18.238281 C 11.140625 18.238281 11.144531 18.238281 11.140625 18.226562 C 11.128906 18.203125 11.113281 18.1875 11.097656 18.171875 C 11.097656 18.171875 11.109375 18.167969 11.105469 18.15625 C 11.085938 18.128906 11.066406 18.105469 11.046875 18.085938 C 11.046875 18.085938 11.039062 18.074219 11.039062 18.054688 C 10.964844 17.886719 10.886719 17.742188 10.804688 17.597656 C 10.796875 17.582031 10.789062 17.5625 10.789062 17.523438 C 10.820312 17.417969 10.84375 17.335938 10.867188 17.25 C 10.867188 17.25 10.871094 17.253906 10.878906 17.25 C 10.894531 17.226562 10.902344 17.203125 10.90625 17.183594 C 10.90625 17.183594 10.910156 17.183594 10.917969 17.179688 C 10.929688 17.160156 10.933594 17.148438 10.9375 17.132812 C 10.9375 17.132812 10.941406 17.121094 10.957031 17.113281 C 10.992188 17.066406 11.011719 17.023438 11.03125 16.984375 C 11.03125 16.984375 11.035156 16.996094 11.042969 16.992188 C 11.074219 16.925781 11.09375 16.871094 11.117188 16.8125 C 11.125 16.792969 11.128906 16.773438 11.15625 16.742188 C 11.375 16.71875 11.570312 16.710938 11.765625 16.695312 C 11.820312 16.6875 11.871094 16.65625 11.921875 16.632812 Z M 11.921875 16.632812 "/>
<path style=" stroke:none;fill-rule:nonzero;fill:rgb(43.529412%,67.450982%,87.058824%);fill-opacity:1;" d="M 6.097656 10.074219 C 6.414062 10.050781 6.742188 10.039062 7.070312 10.019531 C 7.164062 10.015625 7.253906 9.980469 7.347656 9.964844 C 7.511719 9.933594 7.636719 10.046875 7.585938 10.199219 C 7.140625 10.183594 6.703125 10.160156 6.265625 10.132812 C 6.210938 10.128906 6.160156 10.101562 6.097656 10.074219 Z M 6.097656 10.074219 "/>
<path style=" stroke:none;fill-rule:nonzero;fill:rgb(16.470589%,54.901963%,85.882354%);fill-opacity:1;" d="M 17.476562 13.824219 C 17.632812 13.808594 17.789062 13.808594 17.949219 13.8125 C 18.117188 13.8125 18.28125 13.8125 18.449219 13.808594 C 18.644531 13.808594 18.675781 13.773438 18.691406 13.550781 C 18.691406 13.5 18.714844 13.453125 18.742188 13.398438 C 18.757812 13.445312 18.761719 13.496094 18.761719 13.542969 C 18.75 13.796875 18.707031 13.851562 18.484375 13.867188 C 18.210938 13.882812 17.9375 13.890625 17.664062 13.894531 C 17.601562 13.894531 17.542969 13.855469 17.476562 13.824219 Z M 17.476562 13.824219 "/>
<path style=" stroke:none;fill-rule:nonzero;fill:rgb(16.470589%,54.901963%,85.882354%);fill-opacity:1;" d="M 12.410156 17.9375 C 12.398438 17.539062 12.394531 17.136719 12.394531 16.710938 C 12.414062 16.726562 12.449219 16.761719 12.449219 16.792969 C 12.453125 17.144531 12.453125 17.492188 12.449219 17.84375 C 12.449219 17.871094 12.433594 17.902344 12.410156 17.9375 Z M 12.410156 17.9375 "/>
<path style=" stroke:none;fill-rule:nonzero;fill:rgb(16.470589%,54.901963%,85.882354%);fill-opacity:1;" d="M 7.957031 16.292969 C 8.058594 16.273438 8.171875 16.253906 8.285156 16.25 C 8.492188 16.25 8.695312 16.257812 8.914062 16.273438 C 8.605469 16.289062 8.289062 16.292969 7.957031 16.292969 Z M 7.957031 16.292969 "/>
<path style=" stroke:none;fill-rule:nonzero;fill:rgb(16.470589%,54.901963%,85.882354%);fill-opacity:1;" d="M 11.90625 16.632812 C 11.871094 16.65625 11.820312 16.6875 11.765625 16.695312 C 11.570312 16.710938 11.375 16.71875 11.164062 16.734375 C 11.207031 16.703125 11.261719 16.636719 11.320312 16.632812 C 11.507812 16.617188 11.699219 16.628906 11.90625 16.632812 Z M 11.90625 16.632812 "/>
<path style=" stroke:none;fill-rule:nonzero;fill:rgb(16.470589%,54.901963%,85.882354%);fill-opacity:1;" d="M 18.761719 13.007812 C 18.746094 12.921875 18.734375 12.820312 18.722656 12.722656 C 18.710938 12.644531 18.703125 12.566406 18.6875 12.472656 C 18.828125 12.511719 18.777344 12.648438 18.785156 12.753906 C 18.785156 12.835938 18.773438 12.914062 18.761719 13.007812 Z M 18.761719 13.007812 "/>
<path style=" stroke:none;fill-rule:nonzero;fill:rgb(16.470589%,54.901963%,85.882354%);fill-opacity:1;" d="M 17.949219 11.984375 C 17.933594 11.992188 17.90625 12 17.890625 11.988281 C 17.734375 11.878906 17.660156 11.96875 17.609375 12.132812 C 17.601562 12.164062 17.574219 12.191406 17.546875 12.226562 C 17.550781 12.183594 17.566406 12.136719 17.585938 12.09375 C 17.695312 11.808594 17.707031 11.804688 17.949219 11.984375 Z M 17.949219 11.984375 "/>
<path style=" stroke:none;fill-rule:nonzero;fill:rgb(16.470589%,54.901963%,85.882354%);fill-opacity:1;" d="M 11.671875 18.472656 C 11.773438 18.398438 11.890625 18.320312 12.015625 18.246094 C 11.914062 18.324219 11.800781 18.398438 11.671875 18.472656 Z M 11.671875 18.472656 "/>
<path style=" stroke:none;fill-rule:nonzero;fill:rgb(16.470589%,54.901963%,85.882354%);fill-opacity:1;" d="M 10.808594 17.613281 C 10.886719 17.742188 10.964844 17.886719 11.039062 18.046875 C 10.960938 17.917969 10.886719 17.769531 10.808594 17.613281 Z M 10.808594 17.613281 "/>
<path style=" stroke:none;fill-rule:nonzero;fill:rgb(16.470589%,54.901963%,85.882354%);fill-opacity:1;" d="M 12.042969 18.246094 C 12.125 18.171875 12.21875 18.09375 12.324219 18.019531 C 12.242188 18.09375 12.148438 18.167969 12.042969 18.246094 Z M 12.042969 18.246094 "/>
<path style=" stroke:none;fill-rule:nonzero;fill:rgb(16.470589%,54.901963%,85.882354%);fill-opacity:1;" d="M 10.855469 17.257812 C 10.84375 17.335938 10.820312 17.417969 10.789062 17.511719 C 10.804688 17.433594 10.824219 17.347656 10.855469 17.257812 Z M 10.855469 17.257812 "/>
<path style=" stroke:none;fill-rule:nonzero;fill:rgb(16.470589%,54.901963%,85.882354%);fill-opacity:1;" d="M 17.316406 12.523438 C 17.277344 12.605469 17.230469 12.691406 17.167969 12.78125 C 17.207031 12.699219 17.257812 12.613281 17.316406 12.523438 Z M 17.316406 12.523438 "/>
<path style=" stroke:none;fill-rule:nonzero;fill:rgb(16.470589%,54.901963%,85.882354%);fill-opacity:1;" d="M 11.300781 18.5 C 11.351562 18.519531 11.410156 18.546875 11.480469 18.582031 C 11.390625 18.675781 11.355469 18.570312 11.300781 18.5 Z M 11.300781 18.5 "/>
<path style=" stroke:none;fill-rule:nonzero;fill:rgb(16.470589%,54.901963%,85.882354%);fill-opacity:1;" d="M 12.386719 16.683594 C 12.320312 16.683594 12.246094 16.671875 12.164062 16.652344 C 12.230469 16.652344 12.304688 16.660156 12.386719 16.683594 Z M 12.386719 16.683594 "/>
<path style=" stroke:none;fill-rule:nonzero;fill:rgb(16.470589%,54.901963%,85.882354%);fill-opacity:1;" d="M 11.5 18.585938 C 11.539062 18.546875 11.585938 18.507812 11.648438 18.472656 C 11.609375 18.511719 11.5625 18.546875 11.5 18.585938 Z M 11.5 18.585938 "/>
<path style=" stroke:none;fill-rule:nonzero;fill:rgb(16.470589%,54.901963%,85.882354%);fill-opacity:1;" d="M 18.679688 12.445312 C 18.625 12.425781 18.5625 12.394531 18.492188 12.347656 C 18.550781 12.371094 18.613281 12.402344 18.679688 12.445312 Z M 18.679688 12.445312 "/>
<path style=" stroke:none;fill-rule:nonzero;fill:rgb(16.470589%,54.901963%,85.882354%);fill-opacity:1;" d="M 17.148438 12.789062 C 17.140625 12.835938 17.125 12.886719 17.097656 12.945312 C 17.105469 12.898438 17.125 12.847656 17.148438 12.789062 Z M 17.148438 12.789062 "/>
<path style=" stroke:none;fill-rule:nonzero;fill:rgb(16.470589%,54.901963%,85.882354%);fill-opacity:1;" d="M 17.46875 12.320312 C 17.449219 12.363281 17.421875 12.410156 17.386719 12.457031 C 17.402344 12.414062 17.429688 12.367188 17.46875 12.320312 Z M 17.46875 12.320312 "/>
<path style=" stroke:none;fill-rule:nonzero;fill:rgb(16.470589%,54.901963%,85.882354%);fill-opacity:1;" d="M 11.109375 16.820312 C 11.09375 16.871094 11.074219 16.925781 11.042969 16.984375 C 11.054688 16.933594 11.074219 16.878906 11.109375 16.820312 Z M 11.109375 16.820312 "/>
<path style=" stroke:none;fill-rule:nonzero;fill:rgb(0.784314%,51.372552%,84.313726%);fill-opacity:1;" d="M 13.308594 11.351562 C 13.273438 11.324219 13.238281 11.285156 13.203125 11.226562 C 13.238281 11.253906 13.273438 11.296875 13.308594 11.351562 Z M 13.308594 11.351562 "/>
<path style=" stroke:none;fill-rule:nonzero;fill:rgb(16.470589%,54.901963%,85.882354%);fill-opacity:1;" d="M 17.351562 13.59375 C 17.378906 13.625 17.410156 13.667969 17.4375 13.726562 C 17.410156 13.695312 17.378906 13.648438 17.351562 13.59375 Z M 17.351562 13.59375 "/>
<path style=" stroke:none;fill-rule:nonzero;fill:rgb(16.470589%,54.901963%,85.882354%);fill-opacity:1;" d="M 11.179688 18.324219 C 11.199219 18.339844 11.222656 18.367188 11.246094 18.410156 C 11.222656 18.394531 11.203125 18.363281 11.179688 18.324219 Z M 11.179688 18.324219 "/>
<path style=" stroke:none;fill-rule:nonzero;fill:rgb(16.470589%,54.901963%,85.882354%);fill-opacity:1;" d="M 11.023438 16.988281 C 11.011719 17.023438 10.992188 17.066406 10.960938 17.109375 C 10.972656 17.074219 10.992188 17.035156 11.023438 16.988281 Z M 11.023438 16.988281 "/>
<path style=" stroke:none;fill-rule:nonzero;fill:rgb(16.470589%,54.901963%,85.882354%);fill-opacity:1;" d="M 18.125 12.101562 C 18.097656 12.09375 18.0625 12.078125 18.019531 12.050781 C 18.050781 12.054688 18.085938 12.070312 18.125 12.101562 Z M 18.125 12.101562 "/>
<path style=" stroke:none;fill-rule:nonzero;fill:rgb(16.470589%,54.901963%,85.882354%);fill-opacity:1;" d="M 18.289062 12.203125 C 18.261719 12.199219 18.226562 12.183594 18.1875 12.15625 C 18.21875 12.160156 18.25 12.179688 18.289062 12.203125 Z M 18.289062 12.203125 "/>
<path style=" stroke:none;fill-rule:nonzero;fill:rgb(16.470589%,54.901963%,85.882354%);fill-opacity:1;" d="M 17.273438 13.445312 C 17.292969 13.464844 17.316406 13.496094 17.339844 13.539062 C 17.316406 13.519531 17.296875 13.488281 17.273438 13.445312 Z M 17.273438 13.445312 "/>
<path style=" stroke:none;fill-rule:nonzero;fill:rgb(16.470589%,54.901963%,85.882354%);fill-opacity:1;" d="M 17.128906 13.195312 C 17.148438 13.210938 17.175781 13.238281 17.199219 13.28125 C 17.175781 13.265625 17.152344 13.234375 17.128906 13.195312 Z M 17.128906 13.195312 "/>
<path style=" stroke:none;fill-rule:nonzero;fill:rgb(16.470589%,54.901963%,85.882354%);fill-opacity:1;" d="M 18.484375 12.328125 C 18.457031 12.324219 18.421875 12.308594 18.386719 12.285156 C 18.414062 12.285156 18.449219 12.300781 18.484375 12.328125 Z M 18.484375 12.328125 "/>
<path style=" stroke:none;fill-rule:nonzero;fill:rgb(16.470589%,54.901963%,85.882354%);fill-opacity:1;" d="M 11.050781 18.097656 C 11.066406 18.105469 11.085938 18.128906 11.101562 18.160156 C 11.082031 18.152344 11.066406 18.128906 11.050781 18.097656 Z M 11.050781 18.097656 "/>
<path style=" stroke:none;fill-rule:nonzero;fill:rgb(0.784314%,51.372552%,84.313726%);fill-opacity:1;" d="M 13.203125 11.203125 C 13.183594 11.195312 13.160156 11.175781 13.144531 11.140625 C 13.167969 11.148438 13.183594 11.171875 13.203125 11.203125 Z M 13.203125 11.203125 "/>
<path style=" stroke:none;fill-rule:nonzero;fill:rgb(16.470589%,54.901963%,85.882354%);fill-opacity:1;" d="M 17.363281 12.460938 C 17.363281 12.476562 17.355469 12.496094 17.335938 12.519531 C 17.335938 12.5 17.347656 12.484375 17.363281 12.460938 Z M 17.363281 12.460938 "/>
<path style=" stroke:none;fill-rule:nonzero;fill:rgb(16.470589%,54.901963%,85.882354%);fill-opacity:1;" d="M 11.140625 18.25 C 11.152344 18.253906 11.164062 18.273438 11.179688 18.300781 C 11.167969 18.296875 11.152344 18.277344 11.140625 18.25 Z M 11.140625 18.25 "/>
<path style=" stroke:none;fill-rule:nonzero;fill:rgb(16.470589%,54.901963%,85.882354%);fill-opacity:1;" d="M 11.101562 18.183594 C 11.113281 18.1875 11.128906 18.203125 11.140625 18.230469 C 11.128906 18.226562 11.113281 18.210938 11.101562 18.183594 Z M 11.101562 18.183594 "/>
<path style=" stroke:none;fill-rule:nonzero;fill:rgb(16.470589%,54.901963%,85.882354%);fill-opacity:1;" d="M 17.195312 13.300781 C 17.207031 13.304688 17.222656 13.324219 17.234375 13.351562 C 17.222656 13.347656 17.210938 13.328125 17.195312 13.300781 Z M 17.195312 13.300781 "/>
<path style=" stroke:none;fill-rule:nonzero;fill:rgb(16.470589%,54.901963%,85.882354%);fill-opacity:1;" d="M 10.898438 17.1875 C 10.902344 17.203125 10.894531 17.226562 10.875 17.25 C 10.875 17.234375 10.882812 17.214844 10.898438 17.1875 Z M 10.898438 17.1875 "/>
<path style=" stroke:none;fill-rule:nonzero;fill:rgb(16.470589%,54.901963%,85.882354%);fill-opacity:1;" d="M 18.015625 12.027344 C 18 12.03125 17.980469 12.023438 17.957031 12.003906 C 17.972656 12 17.992188 12.011719 18.015625 12.027344 Z M 18.015625 12.027344 "/>
<path style=" stroke:none;fill-rule:nonzero;fill:rgb(16.470589%,54.901963%,85.882354%);fill-opacity:1;" d="M 17.234375 13.371094 C 17.246094 13.378906 17.257812 13.394531 17.273438 13.421875 C 17.261719 13.417969 17.25 13.402344 17.234375 13.371094 Z M 17.234375 13.371094 "/>
<path style=" stroke:none;fill-rule:nonzero;fill:rgb(16.470589%,54.901963%,85.882354%);fill-opacity:1;" d="M 18.359375 12.25 C 18.34375 12.253906 18.320312 12.25 18.296875 12.230469 C 18.316406 12.222656 18.335938 12.234375 18.359375 12.25 Z M 18.359375 12.25 "/>
<path style=" stroke:none;fill-rule:nonzero;fill:rgb(16.470589%,54.901963%,85.882354%);fill-opacity:1;" d="M 17.4375 13.746094 C 17.449219 13.753906 17.460938 13.769531 17.472656 13.796875 C 17.460938 13.792969 17.449219 13.777344 17.4375 13.746094 Z M 17.4375 13.746094 "/>
<path style=" stroke:none;fill-rule:nonzero;fill:rgb(0.784314%,51.372552%,84.313726%);fill-opacity:1;" d="M 8.164062 10.636719 C 8.164062 10.660156 8.15625 10.683594 8.136719 10.703125 C 8.125 10.707031 8.113281 10.695312 8.113281 10.683594 C 8.125 10.652344 8.136719 10.636719 8.148438 10.617188 C 8.148438 10.617188 8.160156 10.628906 8.164062 10.636719 Z M 8.164062 10.636719 "/>
<path style=" stroke:none;fill-rule:nonzero;fill:rgb(0.784314%,51.372552%,84.313726%);fill-opacity:1;" d="M 8.132812 10.710938 C 8.128906 10.738281 8.125 10.753906 8.113281 10.78125 C 8.109375 10.789062 8.09375 10.78125 8.085938 10.761719 C 8.09375 10.730469 8.101562 10.710938 8.113281 10.695312 C 8.113281 10.695312 8.125 10.707031 8.132812 10.710938 Z M 8.132812 10.710938 "/>
<path style=" stroke:none;fill-rule:nonzero;fill:rgb(16.470589%,54.901963%,85.882354%);fill-opacity:1;" d="M 11.246094 18.433594 C 11.261719 18.433594 11.277344 18.445312 11.292969 18.46875 C 11.273438 18.46875 11.261719 18.457031 11.246094 18.433594 Z M 11.246094 18.433594 "/>
<path style=" stroke:none;fill-rule:nonzero;fill:rgb(16.470589%,54.901963%,85.882354%);fill-opacity:1;" d="M 17.105469 13.140625 C 17.113281 13.140625 17.121094 13.152344 17.128906 13.171875 C 17.117188 13.171875 17.113281 13.160156 17.105469 13.140625 Z M 17.105469 13.140625 "/>
<path style=" stroke:none;fill-rule:nonzero;fill:rgb(16.470589%,54.901963%,85.882354%);fill-opacity:1;" d="M 10.929688 17.140625 C 10.933594 17.148438 10.929688 17.160156 10.914062 17.179688 C 10.910156 17.171875 10.914062 17.15625 10.929688 17.140625 Z M 10.929688 17.140625 "/>
<path style=" stroke:none;fill-rule:nonzero;fill:rgb(16.470589%,54.901963%,85.882354%);fill-opacity:1;" d="M 12.375 17.988281 C 12.371094 17.980469 12.375 17.964844 12.390625 17.949219 C 12.394531 17.957031 12.386719 17.96875 12.375 17.988281 Z M 12.375 17.988281 "/>
<path style=" stroke:none;fill-rule:nonzero;fill:rgb(1.568628%,52.156866%,85.09804%);fill-opacity:1;" d="M 12.523438 11.382812 C 12.53125 11.382812 12.542969 11.390625 12.554688 11.414062 C 12.546875 11.414062 12.535156 11.402344 12.523438 11.382812 Z M 12.523438 11.382812 "/>
<path style=" stroke:none;fill-rule:nonzero;fill:rgb(0.784314%,51.372552%,84.313726%);fill-opacity:1;" d="M 13.375 11.4375 C 13.367188 11.4375 13.355469 11.429688 13.339844 11.40625 C 13.347656 11.40625 13.359375 11.414062 13.375 11.4375 Z M 13.375 11.4375 "/>
<path style=" stroke:none;fill-rule:nonzero;fill:rgb(1.568628%,52.156866%,85.09804%);fill-opacity:1;" d="M 12.859375 11.835938 C 12.863281 11.832031 12.878906 11.839844 12.894531 11.859375 C 12.886719 11.863281 12.875 11.855469 12.859375 11.835938 Z M 12.859375 11.835938 "/>
<path style=" stroke:none;fill-rule:nonzero;fill:rgb(96.470588%,96.862745%,96.470588%);fill-opacity:1;" d="M 12.183594 8.296875 C 11.414062 8.328125 10.894531 7.644531 10.78125 6.921875 C 10.691406 6.335938 10.792969 5.808594 11.164062 5.363281 C 11.808594 4.582031 12.878906 4.730469 13.347656 5.652344 C 13.855469 6.652344 13.21875 7.972656 12.542969 8.210938 C 12.429688 8.25 12.3125 8.269531 12.183594 8.296875 M 12.972656 5.8125 C 12.960938 5.800781 12.945312 5.785156 12.925781 5.753906 C 12.90625 5.734375 12.886719 5.71875 12.855469 5.679688 C 12.824219 5.664062 12.792969 5.644531 12.761719 5.628906 C 12.761719 5.628906 12.761719 5.625 12.75 5.605469 C 12.6875 5.574219 12.625 5.542969 12.539062 5.492188 C 12 5.378906 11.585938 5.632812 11.421875 6.1875 C 11.332031 6.523438 11.324219 6.851562 11.480469 7.167969 C 11.480469 7.167969 11.484375 7.167969 11.484375 7.1875 C 11.496094 7.207031 11.503906 7.222656 11.515625 7.242188 C 11.515625 7.242188 11.515625 7.242188 11.519531 7.265625 C 11.539062 7.296875 11.558594 7.328125 11.582031 7.355469 C 11.582031 7.355469 11.582031 7.355469 11.585938 7.378906 C 11.613281 7.414062 11.636719 7.449219 11.667969 7.484375 C 11.667969 7.484375 11.667969 7.488281 11.679688 7.507812 C 11.988281 7.878906 12.605469 7.855469 12.875 7.558594 C 12.875 7.558594 12.878906 7.558594 12.894531 7.550781 C 12.902344 7.546875 12.910156 7.535156 12.910156 7.519531 C 12.910156 7.519531 12.914062 7.519531 12.933594 7.507812 C 13.292969 7.078125 13.351562 6.445312 13.070312 5.996094 C 13.070312 5.996094 13.078125 5.992188 13.074219 5.96875 C 13.0625 5.953125 13.050781 5.9375 13.035156 5.925781 C 13.035156 5.925781 13.039062 5.921875 13.035156 5.902344 C 13.019531 5.878906 13 5.859375 12.980469 5.835938 C 12.980469 5.835938 12.980469 5.832031 12.972656 5.8125 Z M 12.972656 5.8125 "/>
<path style=" stroke:none;fill-rule:nonzero;fill:rgb(96.470588%,96.862745%,96.470588%);fill-opacity:1;" d="M 6.980469 7.300781 C 6.789062 6.714844 6.789062 6.152344 7.082031 5.617188 C 7.414062 5.015625 8.007812 4.738281 8.582031 4.910156 C 9.167969 5.089844 9.582031 5.703125 9.605469 6.394531 C 9.628906 6.945312 9.445312 7.417969 9.136719 7.816406 C 8.539062 8.59375 7.46875 8.398438 7.042969 7.453125 C 7.019531 7.40625 7.003906 7.363281 6.980469 7.300781 M 8.957031 7.5625 C 9.328125 7.183594 9.429688 6.558594 9.203125 6.058594 C 8.917969 5.4375 8.277344 5.253906 7.808594 5.683594 C 7.527344 5.941406 7.421875 6.308594 7.453125 6.707031 C 7.484375 7.113281 7.628906 7.46875 7.972656 7.667969 C 8.304688 7.859375 8.628906 7.820312 8.957031 7.5625 Z M 8.957031 7.5625 "/>
<path style=" stroke:none;fill-rule:nonzero;fill:rgb(0%,8.235294%,13.333334%);fill-opacity:1;" d="M 9.695312 9.125 C 9.710938 9.136719 9.726562 9.148438 9.757812 9.175781 C 10.230469 9.386719 10.671875 9.378906 11.082031 9.046875 C 11.082031 9.046875 11.078125 9.046875 11.089844 9.042969 C 11.140625 9.007812 11.179688 8.96875 11.21875 8.933594 C 11.269531 8.886719 11.316406 8.828125 11.371094 8.789062 C 11.417969 8.757812 11.5 8.71875 11.527344 8.742188 C 11.566406 8.773438 11.597656 8.871094 11.578125 8.917969 C 11.519531 9.082031 11.457031 9.257812 11.359375 9.394531 C 10.792969 10.1875 9.621094 10.066406 9.191406 9.171875 C 9.148438 9.082031 9.136719 8.972656 9.121094 8.867188 C 9.117188 8.832031 9.148438 8.765625 9.179688 8.75 C 9.207031 8.734375 9.265625 8.753906 9.296875 8.78125 C 9.359375 8.832031 9.410156 8.898438 9.484375 8.972656 C 9.53125 9.007812 9.5625 9.03125 9.589844 9.050781 C 9.589844 9.050781 9.59375 9.046875 9.597656 9.058594 C 9.632812 9.085938 9.664062 9.105469 9.695312 9.125 Z M 9.695312 9.125 "/>
<path style=" stroke:none;fill-rule:nonzero;fill:rgb(1.960784%,52.941179%,85.882354%);fill-opacity:1;" d="M 11.070312 9.046875 C 10.671875 9.378906 10.230469 9.386719 9.765625 9.179688 C 9.78125 9.15625 9.808594 9.132812 9.824219 9.136719 C 10.226562 9.320312 10.613281 9.285156 10.992188 9.058594 C 11.007812 9.046875 11.035156 9.046875 11.070312 9.046875 Z M 11.070312 9.046875 "/>
<path style=" stroke:none;fill-rule:nonzero;fill:rgb(1.568628%,52.156866%,85.09804%);fill-opacity:1;" d="M 12.59375 11.347656 C 12.816406 11.335938 12.824219 11.34375 12.757812 11.613281 C 12.695312 11.515625 12.644531 11.4375 12.59375 11.347656 Z M 12.59375 11.347656 "/>
<path style=" stroke:none;fill-rule:nonzero;fill:rgb(1.568628%,52.156866%,85.09804%);fill-opacity:1;" d="M 8.113281 10.683594 C 8.101562 10.710938 8.09375 10.730469 8.082031 10.757812 C 8.039062 10.777344 8 10.789062 7.960938 10.796875 C 7.953125 10.777344 7.945312 10.757812 7.9375 10.738281 C 8.007812 10.691406 8.074219 10.640625 8.144531 10.605469 C 8.136719 10.636719 8.125 10.652344 8.113281 10.683594 Z M 8.113281 10.683594 "/>
<path style=" stroke:none;fill-rule:nonzero;fill:rgb(1.960784%,52.941179%,85.882354%);fill-opacity:1;" d="M 11.207031 8.933594 C 11.179688 8.96875 11.140625 9.007812 11.089844 9.046875 C 11.117188 9.011719 11.15625 8.972656 11.207031 8.933594 Z M 11.207031 8.933594 "/>
<path style=" stroke:none;fill-rule:nonzero;fill:rgb(1.568628%,52.156866%,85.09804%);fill-opacity:1;" d="M 12.59375 11.320312 C 12.558594 11.296875 12.527344 11.265625 12.492188 11.230469 C 12.503906 11.21875 12.519531 11.203125 12.53125 11.191406 C 12.550781 11.230469 12.570312 11.265625 12.59375 11.320312 Z M 12.59375 11.320312 "/>
<path style=" stroke:none;fill-rule:nonzero;fill:rgb(1.960784%,52.941179%,85.882354%);fill-opacity:1;" d="M 9.589844 9.035156 C 9.5625 9.03125 9.53125 9.007812 9.492188 8.976562 C 9.523438 8.984375 9.558594 9.003906 9.589844 9.035156 Z M 9.589844 9.035156 "/>
<path style=" stroke:none;fill-rule:nonzero;fill:rgb(1.960784%,52.941179%,85.882354%);fill-opacity:1;" d="M 9.695312 9.109375 C 9.664062 9.105469 9.632812 9.085938 9.597656 9.058594 C 9.625 9.0625 9.660156 9.082031 9.695312 9.109375 Z M 9.695312 9.109375 "/>
<path style=" stroke:none;fill-rule:nonzero;fill:rgb(1.960784%,9.019608%,13.333334%);fill-opacity:1;" d="M 11.441406 6.164062 C 11.585938 5.632812 12 5.378906 12.554688 5.515625 C 12.632812 5.566406 12.699219 5.597656 12.761719 5.625 C 12.761719 5.625 12.761719 5.628906 12.761719 5.640625 C 12.796875 5.667969 12.832031 5.6875 12.863281 5.703125 C 12.886719 5.71875 12.90625 5.734375 12.929688 5.777344 C 12.949219 5.808594 12.964844 5.820312 12.980469 5.832031 C 12.980469 5.832031 12.980469 5.835938 12.976562 5.847656 C 12.996094 5.882812 13.015625 5.902344 13.039062 5.921875 C 13.039062 5.921875 13.035156 5.925781 13.035156 5.933594 C 13.050781 5.960938 13.0625 5.976562 13.078125 5.992188 C 13.078125 5.992188 13.070312 5.996094 13.070312 6.007812 C 13.074219 6.058594 13.078125 6.09375 13.089844 6.128906 C 13.195312 6.480469 13.21875 6.828125 13.066406 7.171875 C 13.015625 7.289062 12.964844 7.402344 12.914062 7.519531 C 12.914062 7.519531 12.910156 7.519531 12.898438 7.519531 C 12.886719 7.535156 12.882812 7.546875 12.878906 7.558594 C 12.878906 7.558594 12.875 7.558594 12.863281 7.554688 C 12.820312 7.5625 12.785156 7.566406 12.757812 7.582031 C 12.410156 7.792969 12.078125 7.777344 11.761719 7.503906 C 11.738281 7.484375 11.699219 7.492188 11.667969 7.488281 C 11.667969 7.488281 11.667969 7.484375 11.671875 7.472656 C 11.644531 7.421875 11.613281 7.390625 11.582031 7.355469 C 11.582031 7.355469 11.582031 7.355469 11.582031 7.34375 C 11.558594 7.300781 11.539062 7.273438 11.515625 7.242188 C 11.515625 7.242188 11.515625 7.242188 11.515625 7.230469 C 11.503906 7.203125 11.492188 7.183594 11.484375 7.167969 C 11.484375 7.167969 11.480469 7.167969 11.480469 7.152344 C 11.460938 6.925781 11.429688 6.722656 11.417969 6.511719 C 11.410156 6.398438 11.433594 6.28125 11.441406 6.164062 M 12.867188 6.101562 C 12.84375 6.082031 12.824219 6.058594 12.800781 6.042969 C 12.660156 5.945312 12.519531 5.960938 12.402344 6.085938 C 12.316406 6.175781 12.265625 6.289062 12.324219 6.4375 C 12.394531 6.609375 12.519531 6.664062 12.675781 6.648438 C 12.894531 6.625 12.988281 6.386719 12.867188 6.101562 Z M 12.867188 6.101562 "/>
<path style=" stroke:none;fill-rule:nonzero;fill:rgb(1.960784%,8.627451%,12.941177%);fill-opacity:1;" d="M 12.921875 7.515625 C 12.964844 7.402344 13.015625 7.289062 13.066406 7.171875 C 13.21875 6.828125 13.195312 6.480469 13.089844 6.128906 C 13.078125 6.09375 13.074219 6.058594 13.074219 6.007812 C 13.351562 6.445312 13.292969 7.078125 12.921875 7.515625 Z M 12.921875 7.515625 "/>
<path style=" stroke:none;fill-rule:nonzero;fill:rgb(1.960784%,8.627451%,12.941177%);fill-opacity:1;" d="M 11.675781 7.5 C 11.699219 7.492188 11.738281 7.484375 11.761719 7.503906 C 12.078125 7.777344 12.410156 7.792969 12.757812 7.582031 C 12.785156 7.566406 12.820312 7.5625 12.863281 7.558594 C 12.605469 7.855469 11.988281 7.878906 11.675781 7.5 Z M 11.675781 7.5 "/>
<path style=" stroke:none;fill-rule:nonzero;fill:rgb(1.960784%,8.627451%,12.941177%);fill-opacity:1;" d="M 11.433594 6.175781 C 11.433594 6.28125 11.410156 6.398438 11.417969 6.511719 C 11.429688 6.722656 11.460938 6.925781 11.480469 7.148438 C 11.324219 6.851562 11.332031 6.523438 11.433594 6.175781 Z M 11.433594 6.175781 "/>
<path style=" stroke:none;fill-rule:nonzero;fill:rgb(1.960784%,8.627451%,12.941177%);fill-opacity:1;" d="M 12.757812 5.617188 C 12.699219 5.597656 12.632812 5.566406 12.566406 5.527344 C 12.625 5.542969 12.6875 5.574219 12.757812 5.617188 Z M 12.757812 5.617188 "/>
<path style=" stroke:none;fill-rule:nonzero;fill:rgb(1.960784%,8.627451%,12.941177%);fill-opacity:1;" d="M 11.582031 7.367188 C 11.613281 7.390625 11.644531 7.421875 11.667969 7.472656 C 11.636719 7.449219 11.613281 7.414062 11.582031 7.367188 Z M 11.582031 7.367188 "/>
<path style=" stroke:none;fill-rule:nonzero;fill:rgb(1.960784%,8.627451%,12.941177%);fill-opacity:1;" d="M 12.859375 5.691406 C 12.832031 5.6875 12.796875 5.667969 12.765625 5.640625 C 12.792969 5.644531 12.824219 5.664062 12.859375 5.691406 Z M 12.859375 5.691406 "/>
<path style=" stroke:none;fill-rule:nonzero;fill:rgb(1.960784%,8.627451%,12.941177%);fill-opacity:1;" d="M 11.515625 7.253906 C 11.539062 7.273438 11.558594 7.300781 11.582031 7.34375 C 11.558594 7.328125 11.539062 7.296875 11.515625 7.253906 Z M 11.515625 7.253906 "/>
<path style=" stroke:none;fill-rule:nonzero;fill:rgb(1.960784%,8.627451%,12.941177%);fill-opacity:1;" d="M 13.035156 5.910156 C 13.015625 5.902344 12.996094 5.882812 12.980469 5.847656 C 13 5.859375 13.019531 5.878906 13.035156 5.910156 Z M 13.035156 5.910156 "/>
<path style=" stroke:none;fill-rule:nonzero;fill:rgb(1.960784%,8.627451%,12.941177%);fill-opacity:1;" d="M 13.078125 5.980469 C 13.0625 5.976562 13.050781 5.960938 13.035156 5.933594 C 13.050781 5.9375 13.0625 5.953125 13.078125 5.980469 Z M 13.078125 5.980469 "/>
<path style=" stroke:none;fill-rule:nonzero;fill:rgb(1.960784%,8.627451%,12.941177%);fill-opacity:1;" d="M 11.484375 7.179688 C 11.492188 7.183594 11.503906 7.203125 11.515625 7.230469 C 11.503906 7.222656 11.496094 7.207031 11.484375 7.179688 Z M 11.484375 7.179688 "/>
<path style=" stroke:none;fill-rule:nonzero;fill:rgb(1.960784%,8.627451%,12.941177%);fill-opacity:1;" d="M 12.976562 5.824219 C 12.964844 5.820312 12.949219 5.808594 12.933594 5.785156 C 12.945312 5.785156 12.960938 5.800781 12.976562 5.824219 Z M 12.976562 5.824219 "/>
<path style=" stroke:none;fill-rule:nonzero;fill:rgb(1.960784%,8.627451%,12.941177%);fill-opacity:1;" d="M 12.886719 7.554688 C 12.882812 7.546875 12.886719 7.535156 12.902344 7.523438 C 12.910156 7.535156 12.902344 7.546875 12.886719 7.554688 Z M 12.886719 7.554688 "/>
<path style=" stroke:none;fill-rule:nonzero;fill:rgb(1.960784%,8.627451%,12.941177%);fill-opacity:1;" d="M 8.945312 7.574219 C 8.628906 7.820312 8.304688 7.859375 7.972656 7.667969 C 7.628906 7.46875 7.484375 7.113281 7.453125 6.707031 C 7.421875 6.308594 7.527344 5.941406 7.808594 5.683594 C 8.277344 5.253906 8.917969 5.4375 9.203125 6.058594 C 9.429688 6.558594 9.328125 7.183594 8.945312 7.574219 M 8.511719 6.574219 C 8.636719 6.636719 8.761719 6.640625 8.871094 6.53125 C 8.996094 6.402344 9 6.1875 8.878906 6.066406 C 8.75 5.929688 8.550781 5.941406 8.429688 6.089844 C 8.3125 6.230469 8.332031 6.410156 8.511719 6.574219 Z M 8.511719 6.574219 "/>
<path style=" stroke:none;fill-rule:nonzero;fill:rgb(95.686275%,96.078432%,96.078432%);fill-opacity:1;" d="M 12.875 6.113281 C 12.988281 6.386719 12.894531 6.625 12.675781 6.648438 C 12.519531 6.664062 12.394531 6.609375 12.324219 6.4375 C 12.265625 6.289062 12.316406 6.175781 12.402344 6.085938 C 12.519531 5.960938 12.660156 5.945312 12.800781 6.042969 C 12.824219 6.058594 12.84375 6.082031 12.875 6.113281 Z M 12.875 6.113281 "/>
<path style=" stroke:none;fill-rule:nonzero;fill:rgb(95.686275%,96.078432%,96.078432%);fill-opacity:1;" d="M 8.5 6.5625 C 8.332031 6.410156 8.3125 6.230469 8.429688 6.089844 C 8.550781 5.941406 8.75 5.929688 8.878906 6.066406 C 9 6.1875 8.996094 6.402344 8.871094 6.53125 C 8.761719 6.640625 8.636719 6.636719 8.5 6.5625 Z M 8.5 6.5625 "/>
</g>
</svg>
